<svg xmlns="http://www.w3.org/2000/svg" xmlns:xlink="http://www.w3.org/1999/xlink" width="500" zoomAndPan="magnify" viewBox="0 0 375 374.999991" height="500" preserveAspectRatio="xMidYMid meet" version="1.0"><defs><g/></defs><g fill="#000000" fill-opacity="1"><g transform="translate(7.422481, 289.227933)"><g><path d="M 157.65625 0 L 95.875 0 C 80.832031 0 66.90625 -3.84375 54.09375 -11.53125 C 41.101562 -19.226562 30.929688 -29.484375 23.578125 -42.296875 C 16.054688 -55.109375 12.296875 -69.125 12.296875 -84.34375 C 12.296875 -99.550781 16.054688 -113.734375 23.578125 -126.890625 C 31.273438 -139.878906 41.53125 -150.132812 54.34375 -157.65625 C 66.988281 -165 80.832031 -168.671875 95.875 -168.671875 C 107.488281 -168.671875 118.765625 -166.28125 129.703125 -161.5 C 140.472656 -156.707031 149.789062 -149.957031 157.65625 -141.25 L 141.765625 -126.890625 C 136.117188 -133.378906 129.28125 -138.421875 121.25 -142.015625 C 113.21875 -145.429688 104.757812 -147.140625 95.875 -147.140625 C 84.425781 -147.140625 74 -144.320312 64.59375 -138.6875 C 55.03125 -133.039062 47.515625 -125.4375 42.046875 -115.875 C 36.398438 -106.125 33.578125 -95.613281 33.578125 -84.34375 C 33.578125 -72.882812 36.398438 -62.375 42.046875 -52.8125 C 47.515625 -43.0625 55.03125 -35.367188 64.59375 -29.734375 C 74.164062 -24.097656 84.59375 -21.28125 95.875 -21.28125 L 136.125 -21.28125 L 136.125 -66.90625 L 90.234375 -66.90625 L 90.234375 -88.1875 L 157.65625 -88.1875 Z M 157.65625 0 "/></g></g></g><g fill="#000000" fill-opacity="1"><g transform="translate(135.836209, 289.227933)"><g><path d="M 113.8125 -160.984375 L 156.875 -57.671875 L 192.515625 -166.875 L 214.8125 -166.875 L 159.1875 4.09375 L 113.8125 -105.359375 L 68.1875 4.09375 L 12.046875 -166.875 L 34.34375 -166.875 L 70.75 -57.421875 Z M 113.8125 -160.984375 "/></g></g></g><g fill="#000000" fill-opacity="1"><g transform="translate(311.413875, 289.227933)"><g><path d="M 27.9375 0 C 25.03125 0 22.550781 -1.109375 20.5 -3.328125 C 18.457031 -5.378906 17.4375 -7.859375 17.4375 -10.765625 C 17.4375 -13.671875 18.546875 -16.148438 20.765625 -18.203125 C 22.816406 -20.253906 25.207031 -21.28125 27.9375 -21.28125 C 30.84375 -21.28125 33.40625 -20.253906 35.625 -18.203125 C 37.675781 -15.984375 38.703125 -13.503906 38.703125 -10.765625 C 38.703125 -7.859375 37.675781 -5.378906 35.625 -3.328125 C 33.40625 -1.109375 30.84375 0 27.9375 0 Z M 27.9375 0 "/></g></g></g></svg>